<svg width="1600" height="900" viewBox="0 0 1600 900" fill="none" xmlns="http://www.w3.org/2000/svg" role="img" aria-labelledby="cyberTitle cyberDesc">
  <title id="cyberTitle">Cybersecurity research illustration</title>
  <desc id="cyberDesc">A navy and blue abstract market map with data panels representing cybersecurity platforms and intelligence systems.</desc>
  <rect width="1600" height="900" fill="#0A1628"/>
  <rect x="88" y="96" width="1424" height="708" rx="24" fill="#10233D"/>
  <circle cx="1262" cy="210" r="120" fill="#1D6FA4" fill-opacity="0.16"/>
  <circle cx="1350" cy="275" r="78" fill="#1D6FA4" fill-opacity="0.12"/>
  <rect x="154" y="170" width="466" height="260" rx="18" fill="#F7FAFC"/>
  <rect x="182" y="206" width="202" height="16" rx="8" fill="#1D6FA4"/>
  <rect x="182" y="244" width="326" height="18" rx="9" fill="#0A1628"/>
  <rect x="182" y="279" width="278" height="12" rx="6" fill="#718096"/>
  <rect x="182" y="311" width="220" height="12" rx="6" fill="#A0AEC0"/>
  <rect x="182" y="354" width="370" height="20" rx="10" fill="#E2E8F0"/>
  <rect x="182" y="385" width="320" height="20" rx="10" fill="#E2E8F0"/>
  <rect x="672" y="170" width="774" height="154" rx="18" fill="#132B49"/>
  <rect x="708" y="204" width="204" height="12" rx="6" fill="#7FC5F1"/>
  <rect x="708" y="238" width="316" height="20" rx="10" fill="#F7FAFC"/>
  <rect x="1058" y="238" width="180" height="20" rx="10" fill="#D7E8F4"/>
  <rect x="1272" y="238" width="120" height="20" rx="10" fill="#9FBED4"/>
  <path d="M730 293C779 253 844 235 911 241C964 245 1013 270 1066 278C1134 289 1207 277 1278 250C1303 240 1328 228 1350 213" stroke="#7FC5F1" stroke-width="6" stroke-linecap="round"/>
  <circle cx="911" cy="241" r="8" fill="#F7FAFC"/>
  <circle cx="1066" cy="278" r="8" fill="#F7FAFC"/>
  <circle cx="1278" cy="250" r="8" fill="#F7FAFC"/>
  <rect x="672" y="356" width="362" height="356" rx="18" fill="#F7FAFC"/>
  <rect x="710" y="392" width="154" height="14" rx="7" fill="#1D6FA4"/>
  <rect x="710" y="429" width="258" height="18" rx="9" fill="#0A1628"/>
  <rect x="710" y="470" width="60" height="172" rx="12" fill="#D7E8F4"/>
  <rect x="788" y="522" width="60" height="120" rx="12" fill="#A4D4F0"/>
  <rect x="866" y="486" width="60" height="156" rx="12" fill="#5FA8D3"/>
  <rect x="944" y="446" width="60" height="196" rx="12" fill="#1D6FA4"/>
  <rect x="1072" y="356" width="374" height="356" rx="18" fill="#0E2137"/>
  <rect x="1110" y="392" width="174" height="14" rx="7" fill="#7FC5F1"/>
  <rect x="1110" y="429" width="235" height="18" rx="9" fill="#F7FAFC"/>
  <rect x="1110" y="484" width="298" height="28" rx="14" fill="#153250"/>
  <rect x="1110" y="526" width="298" height="28" rx="14" fill="#153250"/>
  <rect x="1110" y="568" width="298" height="28" rx="14" fill="#153250"/>
  <rect x="1110" y="610" width="218" height="28" rx="14" fill="#153250"/>
</svg>
